<?xml version="1.0" standalone="no"?>
<!DOCTYPE svg PUBLIC "-//W3C//DTD SVG 20010904//EN"
 "http://www.w3.org/TR/2001/REC-SVG-20010904/DTD/svg10.dtd">
<svg version="1.0" xmlns="http://www.w3.org/2000/svg"
 width="500.000000pt" height="500.000000pt" viewBox="0 0 500.000000 500.000000"
 preserveAspectRatio="xMidYMid meet">

<g transform="translate(0.000000,500.000000) scale(0.100000,-0.100000)"
fill="#000000" stroke="none">
<path d="M2505 4974 c-37 -29 -170 -91 -250 -117 -44 -15 -179 -51 -300 -81
-353 -88 -492 -140 -611 -228 -96 -72 -130 -119 -192 -270 -10 -24 -18 -28
-49 -28 -59 0 -179 -37 -268 -83 -63 -32 -102 -63 -185 -147 -112 -112 -153
-169 -315 -440 -149 -252 -220 -340 -298 -369 l-26 -10 24 -43 c58 -105 71
-236 49 -512 -26 -340 -11 -524 57 -674 34 -77 110 -184 149 -213 l28 -21 0
-157 c-1 -129 3 -170 21 -241 46 -174 129 -303 340 -525 172 -181 245 -286
286 -415 23 -73 30 -80 79 -80 67 -1 178 -37 441 -144 235 -97 396 -145 553
-166 149 -20 312 22 430 111 l53 41 82 -41 c108 -53 198 -74 322 -75 158 0
343 50 565 151 100 46 299 120 360 133 30 7 85 10 122 8 l67 -3 11 49 c13 59
49 134 93 190 17 23 113 124 212 226 245 251 329 379 356 540 14 85 11 150
-11 235 -11 43 -20 83 -20 89 0 6 21 22 47 36 108 57 191 176 235 335 31 114
30 382 -1 665 -28 245 -26 384 6 449 l21 42 -39 16 c-22 8 -60 38 -85 66 -44
49 -74 106 -217 409 -74 156 -135 249 -221 333 -111 110 -258 176 -443 200
l-52 7 -17 51 c-68 208 -218 344 -463 421 -88 28 -170 47 -409 97 -230 48
-375 101 -471 173 -40 30 -40 30 -66 10z m68 -78 c104 -85 227 -127 552 -191
334 -66 484 -127 604 -244 69 -68 129 -161 152 -238 11 -38 16 -43 48 -48 206
-32 331 -95 459 -229 85 -90 150 -198 243 -404 114 -252 163 -319 251 -343 24
-6 49 -13 57 -15 11 -4 8 -12 -12 -32 -67 -69 -73 -165 -38 -527 40 -403 20
-598 -75 -757 -36 -59 -139 -162 -174 -173 -13 -4 -19 -12 -16 -20 35 -91 40
-245 12 -340 -45 -152 -118 -256 -341 -485 -224 -230 -270 -297 -282 -411 -6
-56 -8 -60 -27 -54 -12 4 -51 9 -87 12 -89 7 -167 -16 -416 -121 -111 -46
-230 -94 -266 -105 -237 -73 -435 -68 -616 15 l-78 35 -62 -40 c-183 -118
-427 -127 -721 -26 -52 18 -177 66 -277 108 -226 94 -301 118 -378 118 l-61 1
-11 53 c-16 75 -75 188 -138 265 -30 36 -111 126 -180 200 -203 216 -277 345
-311 542 -12 67 -15 122 -10 197 l6 103 -54 59 c-143 155 -194 331 -182 632
19 489 19 520 2 587 -10 40 -32 87 -56 122 l-40 57 37 7 c93 16 155 79 268
270 211 359 255 422 374 537 124 119 285 196 411 197 33 0 36 3 53 49 26 74
94 168 156 217 125 98 256 148 608 234 133 33 277 71 320 85 90 31 203 88 229
116 9 10 19 19 21 19 3 0 23 -15 46 -34z"/>
<path d="M2490 4794 c-71 -50 -218 -96 -580 -184 -436 -105 -595 -210 -651
-431 l-12 -47 -81 -7 c-196 -17 -330 -97 -479 -285 -51 -65 -151 -219 -197
-302 -102 -189 -193 -317 -256 -361 l-42 -30 18 -43 c44 -101 49 -222 25 -550
-16 -208 -12 -318 15 -441 22 -96 113 -244 184 -298 l34 -26 -5 -147 c-11
-295 48 -423 327 -718 156 -165 245 -287 281 -387 l23 -66 51 -7 c63 -8 177
-48 370 -129 198 -83 280 -112 400 -141 218 -53 401 -20 558 100 l47 36 57
-35 c107 -65 263 -101 383 -90 63 6 237 46 282 65 13 5 109 45 213 89 218 91
312 121 408 130 l68 6 17 50 c29 85 90 162 280 358 100 104 200 214 221 245
120 177 146 312 96 486 -14 47 -25 90 -25 94 0 4 23 18 51 31 140 64 224 205
247 416 11 97 3 284 -23 540 -18 187 -19 306 -2 373 13 47 12 52 -3 57 -28 9
-103 94 -141 160 -19 33 -54 105 -78 160 -64 148 -129 273 -169 330 -133 183
-287 274 -493 291 -45 4 -82 12 -83 18 -27 116 -89 231 -164 302 -113 107
-229 150 -604 225 -248 49 -417 105 -495 165 -17 13 -33 24 -35 24 -2 -1 -19
-12 -38 -26z m205 -484 c312 -33 595 -134 858 -307 212 -140 388 -317 545
-550 23 -34 42 -64 42 -66 0 -3 16 -34 36 -68 228 -405 286 -962 147 -1429
-126 -425 -403 -799 -773 -1045 -187 -124 -445 -231 -660 -274 -702 -140
-1419 118 -1858 668 -279 350 -416 740 -416 1186 1 431 123 797 382 1145 60
80 258 284 332 341 290 224 640 365 1000 402 75 8 279 6 365 -3z"/>
<path d="M2360 4259 c-646 -55 -1212 -439 -1498 -1014 -95 -192 -146 -357
-178 -575 -20 -138 -15 -426 10 -559 127 -682 601 -1225 1253 -1436 209 -68
368 -89 616 -82 206 6 329 26 506 82 476 151 882 507 1097 960 125 265 176
497 175 800 -1 615 -299 1172 -810 1516 -342 230 -769 343 -1171 308z m44
-201 c3 -18 11 -67 16 -108 33 -233 32 -228 53 -234 17 -4 78 12 149 39 12 5
17 0 20 -16 4 -27 29 -44 53 -35 17 6 17 8 -4 29 -11 13 -21 29 -21 35 0 17
51 40 107 48 41 5 51 3 56 -10 8 -19 0 -23 -66 -29 -92 -9 -73 -31 36 -41 39
-4 73 -9 76 -12 10 -9 -20 -22 -68 -28 -25 -3 -73 -15 -106 -25 l-60 -19 -17
-102 c-18 -108 -22 -120 -38 -104 -11 11 18 197 31 202 4 2 0 11 -10 21 -10
10 -21 25 -23 32 -4 11 -14 11 -60 -4 -30 -9 -65 -17 -78 -17 -27 0 -60 26
-60 48 0 10 -3 12 -12 4 -7 -6 -29 -14 -48 -20 -19 -5 -34 -14 -33 -21 6 -26
-16 -7 -53 47 -58 82 -58 82 -37 82 12 0 28 -17 45 -47 23 -42 30 -48 57 -47
49 3 81 29 81 67 0 17 -7 41 -15 51 -21 27 -19 35 10 48 14 6 22 14 17 17 -10
7 -33 161 -26 173 11 17 23 6 28 -24z m312 -5 c-3 -16 -12 -68 -21 -118 -8
-49 -21 -119 -28 -155 l-14 -65 -6 41 c-4 22 0 80 8 130 29 169 36 194 52 194
11 0 13 -7 9 -27z m-884 -157 c21 -27 24 -35 13 -40 -14 -5 -65 46 -65 65 0
20 26 7 52 -25z m1491 28 c7 -7 -10 -27 -110 -138 -42 -47 -53 -55 -53 -38 0
12 31 56 71 102 71 79 80 86 92 74z m-1319 -64 c-6 -6 -24 -12 -39 -14 -15 -2
-32 -10 -37 -19 -11 -21 -51 -22 -68 -2 -11 13 -8 15 13 15 14 0 29 5 32 10 3
6 19 10 36 10 25 0 29 4 29 27 l0 27 22 -22 c16 -15 19 -25 12 -32z m606 32
c0 -4 -16 -14 -36 -21 -30 -11 -38 -11 -45 0 -15 25 -10 29 36 29 25 0 45 -4
45 -8z m-346 -32 c18 -18 -1 -21 -55 -9 -79 16 -88 33 -14 25 33 -4 64 -11 69
-16z m666 -16 c0 -25 2 -26 35 -20 46 9 48 -14 3 -35 -38 -17 -68 -14 -68 7 0
7 -9 19 -20 26 -36 23 -22 45 28 47 17 1 22 -4 22 -25z m-772 -43 c31 -28 52
-56 52 -69 0 -33 -27 -52 -75 -52 -38 0 -44 -3 -47 -22 -4 -32 -66 -37 -114
-9 -19 11 -34 16 -34 11 0 -5 9 -14 21 -20 14 -8 19 -19 17 -38 -3 -24 -7 -27
-41 -26 -40 1 -87 35 -87 62 0 13 3 12 18 -1 10 -10 29 -17 42 -17 21 0 22 1
7 18 -21 23 -31 66 -22 99 l6 26 21 -34 c21 -34 46 -58 61 -59 5 0 -5 11 -22
25 -16 14 -35 41 -41 60 -8 23 -16 32 -26 28 -8 -3 -14 0 -14 6 0 6 7 11 15
11 19 0 117 -118 109 -132 -4 -6 2 -6 15 1 29 16 27 57 -4 104 -36 52 -17 46
42 -13 57 -57 103 -69 103 -26 0 25 -26 57 -75 93 l-30 22 25 1 c16 0 43 -17
78 -49z m416 13 c26 -10 18 -24 -13 -24 -32 0 -50 15 -29 23 19 8 24 8 42 1z
m576 -64 c0 -23 -10 -26 -28 -8 -18 18 -15 28 8 28 13 0 20 -7 20 -20z m-121
-15 c-20 -13 -39 -31 -42 -40 -23 -59 98 -104 140 -51 25 31 63 44 63 21 0 -9
13 -30 29 -46 42 -42 101 -41 143 2 33 32 66 34 49 2 -19 -37 -51 -56 -100
-61 -40 -3 -58 1 -98 22 -46 25 -51 26 -78 12 -17 -9 -51 -16 -77 -16 -29 0
-48 -5 -48 -11 0 -14 -159 -189 -171 -189 -22 0 -3 29 77 116 48 53 79 94 71
94 -28 0 -77 50 -77 79 0 39 19 59 70 75 73 23 90 20 49 -9z m306 15 c-3 -5
-35 -10 -71 -10 -41 0 -63 4 -59 10 3 6 35 10 71 10 41 0 63 -4 59 -10z
m-1609 -28 c-5 -14 7 -30 44 -61 84 -71 60 -78 -40 -11 -103 69 -113 90 -44
90 39 0 45 -2 40 -18z m1388 -48 c-21 -26 -45 -44 -57 -44 -20 0 -20 0 -1 23
50 59 67 75 80 70 10 -4 4 -17 -22 -49z m222 11 c19 -15 19 -15 0 -30 -29 -22
-36 -19 -36 15 0 34 7 37 36 15z m-1628 -35 c17 -13 42 -44 57 -71 22 -41 31
-49 55 -49 39 0 60 -9 60 -26 0 -19 -81 -96 -95 -90 -6 2 -17 22 -24 45 -10
35 -16 41 -39 41 -40 0 -102 -12 -102 -19 0 -3 92 -49 205 -101 189 -87 229
-110 191 -110 -17 0 -241 108 -301 144 -21 14 -42 23 -46 20 -4 -2 -24 3 -45
12 -29 12 -34 18 -23 26 24 17 -40 -1 -67 -19 -25 -16 -32 -33 -14 -33 6 0 10
-4 10 -10 0 -13 -117 -13 -125 0 -10 16 65 57 161 89 51 17 100 31 110 31 11
0 26 5 34 10 12 7 10 14 -15 40 -17 18 -42 39 -57 48 -16 9 -28 25 -28 35 0
17 5 19 34 14 19 -3 48 -15 64 -27z m760 -69 c15 -113 15 -131 -1 -131 -10 0
-17 28 -25 94 -15 119 -15 126 1 126 9 0 17 -28 25 -89z m402 70 c0 -9 -83
-31 -115 -31 -31 0 -13 19 23 25 20 4 42 8 47 10 21 7 45 5 45 -4z m-725 -137
c58 -70 84 -109 78 -115 -7 -7 -41 27 -102 99 -50 61 -91 113 -91 116 0 25 40
-10 115 -100z m-698 43 c91 -41 120 -65 66 -54 -45 9 -203 89 -197 99 7 11 10
10 131 -45z m113 39 c0 -8 -14 -16 -32 -19 -42 -6 -56 2 -33 20 25 17 65 17
65 -1z m751 -71 c44 -97 44 -95 25 -95 -15 0 -90 156 -81 170 11 18 16 11 56
-75z m499 65 c0 -19 -80 -170 -90 -170 -17 0 -12 17 30 100 36 71 60 99 60 70z
m939 -23 c-4 -3 -141 -64 -166 -74 -7 -3 -13 1 -13 9 0 19 161 89 174 77 5 -5
8 -10 5 -12z m-559 -8 c0 -5 -7 -9 -15 -9 -15 0 -20 12 -9 23 8 8 24 -1 24
-14z m270 -13 c0 -8 7 -16 15 -20 8 -3 14 -11 13 -18 -2 -7 11 -15 30 -18 33
-5 30 -7 -70 -55 -95 -46 -100 -50 -70 -53 20 -2 50 5 74 18 74 38 50 13 -36
-40 -47 -28 -86 -55 -86 -60 0 -25 30 -15 127 41 60 34 110 63 113 65 3 1 12
-1 20 -6 11 -7 11 -11 1 -24 -7 -9 -17 -13 -22 -10 -5 3 -58 -23 -119 -57
-110 -61 -147 -72 -174 -50 -20 17 -11 36 35 70 l40 29 -28 6 c-15 4 -37 9
-48 12 -16 4 -17 3 -5 -5 13 -9 12 -11 -3 -11 -10 0 -15 -4 -12 -10 9 -15 -16
-11 -60 11 -38 18 -29 19 33 3 16 -5 22 -2 22 10 0 9 -6 16 -14 16 -21 0 -76
56 -76 77 0 27 31 53 76 63 49 11 54 6 21 -21 -45 -35 -32 -66 40 -103 37 -18
47 -20 38 -6 -7 11 99 62 131 62 18 0 20 3 10 25 -6 13 -21 26 -33 29 -26 7
-28 15 -11 32 16 16 28 15 28 -2z m-317 -8 c7 -21 -4 -38 -24 -38 -24 0 -37
29 -18 41 20 12 37 11 42 -3z m-1065 -151 c42 -31 53 -47 31 -47 -22 0 -179
124 -167 131 7 5 29 -5 53 -23 22 -17 59 -44 83 -61z m1042 63 c0 -12 -160
-120 -178 -120 -26 0 -6 19 78 74 88 57 100 63 100 46z m-1392 -50 c41 -25 43
-56 4 -73 -16 -7 -27 -18 -25 -24 3 -7 -9 -21 -26 -30 -27 -16 -30 -22 -25
-50 4 -22 0 -46 -15 -76 -20 -41 -20 -46 -6 -73 8 -16 15 -40 15 -52 l0 -24
-31 26 c-63 54 -199 21 -199 -48 0 -12 -11 -33 -24 -45 -21 -19 -30 -22 -70
-16 -25 4 -46 11 -46 17 0 19 82 86 139 114 33 16 60 32 60 37 1 4 -49 7 -109
7 -87 0 -116 4 -137 17 -23 15 -24 17 -7 23 12 5 -7 10 -48 14 -75 8 -92 26
-25 26 68 0 121 -11 105 -22 -8 -6 -3 -7 17 -2 17 4 41 7 55 6 14 -1 48 -3 75
-5 28 -1 70 -4 95 -5 33 -2 41 -5 30 -12 -13 -8 -13 -10 2 -10 9 0 29 11 45
24 23 20 28 32 27 66 -1 23 -8 48 -15 55 -8 7 -86 34 -174 60 -176 51 -216 65
-198 72 6 2 102 -19 213 -47 185 -46 244 -54 237 -30 -1 5 6 15 17 22 17 13
17 16 2 30 -8 9 -21 18 -28 20 -16 6 0 28 20 28 9 0 32 -9 50 -20z m829 -47
l30 -68 -31 -67 c-17 -37 -34 -67 -37 -68 -4 0 -20 31 -37 69 l-31 69 31 66
c18 36 35 66 38 66 4 0 21 -30 37 -67z m657 -12 c7 -10 -175 -92 -187 -84 -14
9 4 21 88 57 88 39 91 40 99 27z m430 -17 c22 -8 20 -21 -5 -35 -17 -8 -23 -8
-29 1 -6 10 -28 5 -90 -19 -45 -17 -85 -31 -88 -30 -10 1 171 88 185 88 6 1
18 -2 27 -5z m-1274 -74 c0 -70 0 -70 -33 -84 -51 -21 -80 -63 -73 -106 16
-103 153 -106 218 -5 13 19 26 35 30 35 3 0 15 -16 27 -35 39 -66 117 -93 180
-61 69 36 65 146 -7 175 -25 11 -31 21 -41 68 -17 84 -16 86 18 69 42 -22 109
-103 121 -145 18 -64 12 -172 -10 -209 -53 -86 -207 -95 -270 -15 l-19 24 -38
-25 c-81 -54 -182 -55 -231 -3 -45 48 -45 181 -1 255 35 57 101 132 116 132
10 0 13 -18 13 -70z m-855 5 c28 -27 30 -37 15 -65 -8 -15 -18 -18 -48 -14
-38 6 -92 23 -92 31 0 2 7 19 14 38 13 31 19 35 51 35 25 0 43 -8 60 -25z
m351 -31 c70 -18 102 -30 95 -37 -11 -11 -231 40 -231 54 0 14 23 11 136 -17z
m1444 -6 c0 -8 -35 -20 -93 -32 -126 -26 -157 -30 -157 -19 0 6 51 21 113 36
134 30 137 30 137 15z m210 -30 c10 -6 4 -7 -18 -3 -71 14 -108 -50 -57 -100
18 -19 35 -25 70 -25 38 0 45 -3 45 -20 0 -16 -5 -19 -22 -16 -13 3 -44 8 -70
11 -26 3 -57 14 -70 24 -21 17 -34 18 -138 10 -154 -11 -170 -11 -170 1 0 12
39 18 173 26 103 6 107 7 107 29 0 29 35 73 63 78 26 5 66 -2 87 -15z m125
-40 c-3 -33 -1 -48 5 -39 11 19 101 21 107 4 3 -9 -10 -13 -47 -13 -31 0 -49
-4 -45 -10 4 -6 -6 -10 -24 -10 -16 0 -32 4 -35 9 -3 5 -15 7 -26 4 -16 -4
-19 -2 -14 11 4 10 13 14 24 11 20 -6 34 18 25 46 -7 23 1 39 20 39 10 0 13
-13 10 -52z m126 18 l19 -33 70 5 c46 3 70 1 70 -6 0 -13 -81 -27 -111 -19
-14 4 -19 2 -15 -8 2 -7 -1 -16 -8 -18 -8 -3 -23 16 -39 49 -30 61 -31 64 -17
64 6 0 20 -15 31 -34z m-1944 -52 c86 -6 124 -16 112 -29 -6 -5 -246 11 -287
21 -43 9 -12 27 37 20 25 -3 87 -8 138 -12z m1731 5 c-2 -6 -8 -10 -13 -10 -5
0 -11 4 -13 10 -2 6 4 11 13 11 9 0 15 -5 13 -11z m-34 -18 c6 -9 -62 -23 -76
-15 -4 3 -8 9 -8 15 0 11 77 12 84 0z m-1584 -110 c0 -5 -30 -12 -67 -15 -38
-4 -94 -9 -125 -12 -39 -4 -58 -2 -58 5 0 13 27 20 95 24 108 7 155 7 155 -2z
m1398 -35 c15 -16 -19 -18 -130 -7 -68 7 -125 14 -127 16 -1 2 -1 8 2 12 6 9
244 -11 255 -21z m-1719 15 c12 -8 13 -15 4 -34 -10 -22 -8 -26 23 -40 34 -17
78 -73 68 -89 -10 -15 -25 -8 -34 17 -12 32 -64 55 -127 55 -26 0 -56 6 -65
14 -16 12 -15 15 9 49 23 32 31 37 67 37 23 0 47 -4 55 -9z m2128 -15 c32 -13
-8 -26 -77 -26 -70 0 -191 17 -202 28 -9 9 256 6 279 -2z m-417 -50 c5 -13 12
-40 15 -60 6 -29 4 -36 -8 -36 -10 0 -19 17 -26 50 -6 28 -11 55 -11 60 0 19
21 9 30 -14z m172 7 c21 -19 23 -44 6 -61 -23 -23 -38 -14 -31 18 3 18 1 30
-5 30 -6 0 -19 -13 -29 -30 -19 -33 -43 -40 -43 -12 0 9 -3 27 -6 40 -5 17 -3
21 9 16 9 -3 24 -1 34 5 26 15 44 13 65 -6z m-1522 -12 c0 -8 -221 -71 -248
-71 -28 0 -8 20 31 31 184 51 217 57 217 40z m-604 -45 c-18 -29 -57 -34 -101
-14 -38 17 -30 23 24 20 42 -3 52 0 63 17 7 12 16 17 22 11 5 -5 2 -19 -8 -34z
m1813 1 c63 -18 117 -39 119 -45 6 -18 -7 -15 -138 23 -66 19 -122 35 -125 35
-3 0 -5 5 -5 10 0 16 28 12 149 -23z m-631 -119 c3 -51 -1 -160 -8 -243 -15
-188 -8 -225 50 -255 22 -11 50 -20 62 -20 33 0 124 45 131 65 20 50 -8 134
-90 278 -58 101 -93 176 -93 200 0 6 22 24 49 39 l48 26 40 -41 c36 -37 63
-76 63 -91 0 -3 -13 3 -29 12 -16 9 -33 14 -36 10 -4 -3 12 -37 34 -74 61
-101 83 -167 89 -264 6 -110 -8 -158 -52 -188 -41 -28 -131 -42 -194 -30 -51
9 -130 52 -139 74 -5 13 -8 13 -22 0 -9 -8 -43 -27 -76 -43 -82 -37 -181 -39
-241 -4 -51 29 -64 55 -64 129 1 79 14 132 60 232 35 74 36 81 14 55 -37 -44
-82 -137 -125 -258 -53 -151 -84 -188 -144 -173 -26 7 -55 60 -55 103 0 55 22
147 47 196 26 53 91 145 78 112 -54 -140 -70 -261 -41 -301 26 -34 48 -5 86
107 48 144 102 238 181 319 59 59 164 128 177 115 3 -3 -14 -32 -37 -65 -54
-76 -114 -206 -136 -290 -21 -81 -17 -182 8 -208 27 -26 122 -23 169 6 48 30
63 56 88 148 24 94 26 198 4 279 -9 33 -17 65 -18 72 -2 17 97 83 108 72 6 -5
12 -50 14 -101z m373 93 c13 -10 33 -34 43 -52 20 -34 22 -34 -29 -13 -23 9
-19 -3 30 -101 96 -190 120 -332 74 -432 l-22 -48 -27 135 c-42 202 -75 326
-115 424 -19 48 -33 92 -30 97 10 15 51 10 76 -10z m-1261 -11 c0 -5 -19 -14
-42 -20 -24 -6 -74 -20 -113 -30 -38 -10 -124 -33 -190 -50 -66 -17 -128 -33
-137 -36 -11 -3 -18 0 -18 8 0 9 25 20 68 31 37 9 141 37 232 61 175 47 200
52 200 36z m380 0 c0 -6 -10 -14 -22 -19 -13 -5 -99 -46 -193 -91 -93 -45
-201 -97 -240 -115 -291 -137 -285 -134 -285 -115 0 5 19 18 43 29 23 11 184
87 357 170 173 83 321 150 328 151 6 0 12 -5 12 -10z m1476 -61 c267 -78 304
-90 304 -99 0 -16 -14 -13 -250 55 -262 77 -280 83 -229 84 20 1 99 -17 175
-40z m153 -306 c1 -7 -4 -13 -9 -13 -15 0 -612 300 -632 318 -10 8 -18 19 -18
23 0 14 658 -315 659 -328z m-1222 -366 c30 -16 36 -16 70 -2 59 25 139 28
268 11 65 -9 135 -16 155 -16 34 -1 39 -6 130 -135 56 -79 106 -163 121 -202
l26 -68 -55 -3 c-30 -2 -139 6 -241 18 -201 23 -273 21 -376 -11 -59 -18 -61
-18 -125 2 -99 31 -210 34 -399 10 -175 -22 -271 -27 -271 -12 0 38 60 150
145 269 l100 141 75 1 c41 1 95 5 120 10 73 14 220 6 257 -13z m-1173 -553
c18 -17 22 -64 6 -64 -6 0 -13 7 -16 15 -9 22 -34 18 -34 -5 0 -11 11 -27 25
-36 35 -23 51 -81 36 -127 -22 -67 -76 -57 -88 16 -7 43 8 49 26 11 13 -30 35
-27 39 5 3 16 -6 31 -30 51 -28 24 -33 34 -33 72 0 68 34 98 69 62z m644 3
c17 -20 25 -64 12 -72 -7 -4 -14 1 -17 14 -6 25 -31 28 -40 5 -3 -10 7 -27 31
-48 31 -29 36 -40 36 -78 0 -45 -21 -88 -44 -88 -27 0 -51 44 -47 88 2 20 21
13 21 -8 0 -25 29 -38 41 -19 13 21 12 26 -26 63 -30 30 -35 42 -35 80 0 61
39 98 68 63z m1288 -8 c16 -18 19 -37 19 -119 0 -82 -3 -101 -19 -119 -26 -29
-43 -26 -67 12 -28 44 -24 193 5 226 24 26 38 26 62 0z m586 -19 c38 -75 13
-235 -36 -235 -38 0 -59 46 -59 132 0 132 53 188 95 103z m-2438 8 c3 -13 8
-45 12 -73 l8 -50 9 73 c8 60 13 72 28 72 18 0 19 -10 19 -130 0 -136 -17
-183 -22 -62 l-3 67 -9 -63 c-8 -55 -19 -82 -31 -70 -2 2 -8 33 -13 68 l-10
65 -1 -67 c-1 -53 -4 -68 -16 -68 -13 0 -15 21 -15 130 0 123 1 130 20 130 12
0 21 -8 24 -22z m127 -25 l1 -48 21 48 c11 26 27 47 34 47 17 0 16 -3 -4 -60
-16 -46 -16 -52 1 -107 9 -32 20 -66 22 -75 4 -12 0 -18 -11 -18 -17 0 -18 3
-35 69 -14 53 -30 39 -30 -26 0 -32 -4 -43 -15 -43 -13 0 -15 19 -14 130 1
104 4 130 15 130 10 0 14 -14 15 -47z m159 2 c0 -56 13 -58 30 -4 13 37 33 59
46 47 2 -3 -4 -26 -15 -51 -20 -46 -20 -47 0 -114 23 -80 23 -93 6 -93 -9 0
-19 22 -27 57 -11 52 -14 55 -26 38 -8 -10 -14 -36 -14 -57 0 -21 -4 -38 -10
-38 -6 0 -10 50 -10 130 0 80 4 130 10 130 6 0 10 -20 10 -45z m190 25 c0 -16
-7 -20 -36 -20 -33 0 -35 -2 -32 -27 2 -22 9 -29 31 -31 23 -3 28 -8 25 -25
-2 -16 -11 -23 -30 -25 -25 -3 -28 -8 -28 -38 0 -32 2 -34 35 -34 28 0 35 -4
35 -20 0 -17 -7 -20 -45 -20 l-45 0 0 130 0 130 45 0 c38 0 45 -3 45 -20z
m194 -2 c14 -61 36 -197 36 -216 0 -32 -14 -27 -27 9 -14 37 -44 37 -53 0 -5
-23 -30 -43 -30 -24 0 4 9 58 20 118 11 61 20 116 20 123 0 21 29 13 34 -10z
m126 2 c0 -11 -7 -20 -15 -20 -12 0 -15 -19 -15 -110 0 -91 -3 -110 -15 -110
-12 0 -15 19 -15 110 0 91 -3 110 -15 110 -8 0 -15 9 -15 20 0 17 7 20 45 20
38 0 45 -3 45 -20z m108 3 c10 -27 6 -101 -7 -116 -8 -11 -8 -24 4 -57 18 -52
19 -70 2 -70 -7 0 -19 24 -27 52 -8 29 -19 52 -25 50 -5 -1 -11 -24 -13 -52
-2 -27 -7 -50 -13 -50 -5 0 -9 55 -9 130 l0 130 40 0 c29 0 43 -5 48 -17z m52
-113 c0 -80 -4 -130 -10 -130 -6 0 -10 50 -10 130 0 80 4 130 10 130 6 0 10
-50 10 -130z m103 33 c9 -54 19 -113 23 -130 5 -26 3 -33 -9 -33 -10 0 -17 11
-19 28 -2 19 -9 28 -26 30 -18 3 -23 -2 -28 -27 -4 -17 -12 -31 -19 -31 -9 0
-8 26 6 108 24 142 27 152 43 152 9 0 18 -31 29 -97z m81 43 c9 -30 16 -59 16
-65 0 -6 5 -11 10 -11 6 0 10 28 10 65 0 37 4 65 10 65 6 0 10 -50 10 -130 0
-102 -3 -130 -13 -130 -9 0 -22 28 -35 73 l-20 72 -1 -72 c-1 -58 -4 -73 -16
-73 -13 0 -15 21 -15 130 0 106 3 130 14 130 9 0 21 -21 30 -54z m206 35 c14
-27 13 -104 -2 -123 -7 -9 -22 -18 -33 -20 -16 -3 -21 -12 -23 -51 -2 -26 -7
-47 -13 -47 -5 0 -9 55 -9 130 l0 130 35 0 c24 0 37 -6 45 -19z m62 -88 c2
-88 6 -108 18 -108 12 0 16 20 18 108 2 90 5 107 19 107 14 0 15 -14 10 -112
-6 -127 -10 -144 -39 -154 -41 -13 -53 17 -56 146 -3 103 -1 120 12 120 13 0
16 -18 18 -107z m178 81 c14 -35 12 -64 -4 -96 -12 -23 -12 -32 0 -65 7 -21
13 -46 14 -56 0 -35 -24 -11 -40 39 -9 27 -21 48 -26 47 -5 -2 -10 -25 -12
-53 -2 -27 -7 -50 -13 -50 -5 0 -9 55 -9 130 l0 130 40 0 c34 0 42 -4 50 -26z
m44 -11 c3 -21 6 -51 6 -68 0 -41 20 -12 20 30 0 45 11 75 26 75 9 0 15 -23
20 -72 8 -80 22 -71 23 14 1 41 14 68 27 55 6 -5 -22 -246 -29 -254 -15 -15
-26 15 -33 90 -7 75 -8 79 -15 42 -4 -22 -10 -61 -14 -87 -9 -66 -31 -63 -38
5 -16 141 -19 207 -10 207 6 0 13 -17 17 -37z m297 -10 l1 -48 20 48 c11 26
27 47 34 47 19 0 18 -14 -5 -59 -20 -37 -20 -38 3 -117 13 -43 22 -81 20 -83
-11 -13 -32 14 -43 58 -16 62 -31 57 -31 -10 0 -37 -4 -49 -15 -49 -13 0 -15
21 -15 130 0 109 2 130 15 130 11 0 15 -12 16 -47z m179 27 c0 -16 -7 -20 -30
-20 -27 0 -30 -3 -30 -29 0 -25 4 -30 28 -33 19 -2 27 -9 27 -23 0 -14 -8 -21
-27 -23 -25 -3 -28 -8 -28 -38 0 -31 2 -34 30 -34 23 0 30 -4 30 -20 0 -17 -7
-20 -45 -20 l-45 0 0 130 0 130 45 0 c38 0 45 -3 45 -20z m110 1 c14 -28 12
-83 -4 -107 -12 -17 -12 -27 4 -74 10 -30 17 -57 15 -59 -13 -12 -34 13 -44
53 -16 66 -31 67 -31 2 0 -43 -3 -56 -15 -56 -13 0 -15 21 -15 130 l0 130 40
0 c29 0 42 -5 50 -19z m120 -1 c0 -13 -7 -20 -20 -20 -19 0 -20 -7 -20 -110 0
-67 -4 -110 -10 -110 -6 0 -10 43 -10 110 0 103 -1 110 -20 110 -13 0 -20 7
-20 20 0 17 7 20 50 20 43 0 50 -3 50 -20z"/>
<path d="M1800 3480 c0 -5 7 -10 16 -10 8 0 12 5 9 10 -3 6 -10 10 -16 10 -5
0 -9 -4 -9 -10z"/>
<path d="M1428 3123 c6 -2 18 -2 25 0 6 3 1 5 -13 5 -14 0 -19 -2 -12 -5z"/>
<path d="M1445 3240 c-9 -15 4 -30 26 -30 12 0 19 7 19 20 0 21 -33 29 -45 10z"/>
<path d="M1530 2920 c0 -15 7 -20 25 -20 18 0 25 5 25 20 0 15 -7 20 -25 20
-18 0 -25 -5 -25 -20z"/>
<path d="M2131 2072 l-123 -17 -83 -115 -82 -115 31 -3 c17 -2 115 6 218 19
189 22 239 21 361 -7 l28 -6 -3 113 -3 114 -29 14 c-43 20 -175 21 -315 3z
m273 -22 c14 -5 26 -15 26 -21 0 -7 -7 -8 -17 -4 -58 22 -126 25 -244 10 -68
-8 -125 -15 -126 -15 -2 0 -3 6 -3 13 0 29 298 43 364 17z m-28 -31 c41 -10
62 -24 52 -34 -2 -2 -28 3 -58 12 -47 14 -69 14 -170 3 -63 -6 -128 -14 -144
-17 -22 -5 -28 -3 -24 8 9 26 266 47 344 28z m13 -42 c56 -19 51 -38 -5 -21
-60 18 -103 18 -243 -2 -79 -11 -117 -12 -124 -5 -14 14 -1 17 108 29 129 13
225 13 264 -1z m2 -39 c44 -13 54 -34 12 -24 -73 17 -156 17 -276 1 -115 -15
-151 -15 -135 0 9 9 201 32 282 34 43 0 96 -4 117 -11z m2 -39 c20 -5 37 -16
37 -23 0 -11 -6 -11 -37 0 -51 18 -112 17 -276 -2 -91 -11 -142 -13 -148 -7
-7 7 31 15 108 25 143 19 265 21 316 7z"/>
<path d="M2590 2081 c-79 -16 -80 -19 -80 -145 l0 -114 48 15 c67 20 200 18
400 -7 96 -12 176 -19 179 -16 3 3 -32 58 -79 123 -81 114 -85 118 -123 121
-22 1 -89 9 -148 17 -115 16 -142 17 -197 6z m318 -37 c17 -4 32 -11 32 -16 0
-7 -26 -7 -72 -2 -96 12 -255 11 -293 0 -27 -8 -29 -8 -17 7 8 9 23 18 35 21
27 6 269 -2 315 -10z m-88 -29 c68 -9 126 -18 129 -20 14 -14 -17 -16 -96 -5
-111 14 -220 15 -256 1 -35 -13 -47 -14 -47 -2 0 13 70 34 130 40 9 0 72 -6
140 -14z m23 -41 c67 -9 124 -18 126 -20 15 -15 -26 -15 -146 0 -127 15 -189
14 -249 -6 -5 -2 -11 2 -14 7 -6 12 70 33 123 34 21 1 93 -6 160 -15z m25 -41
c72 -10 132 -21 132 -25 0 -12 -30 -10 -180 8 -111 14 -145 14 -192 5 -65 -14
-67 -14 -70 -4 -5 12 73 31 127 32 28 1 110 -7 183 -16z m0 -40 c83 -10 152
-21 152 -25 0 -12 -40 -10 -193 8 -135 16 -196 13 -261 -12 -14 -5 -17 -3 -14
7 5 16 75 37 128 38 19 1 104 -6 188 -16z"/>
<path d="M2158 1823 c12 -2 30 -2 40 0 9 3 -1 5 -23 4 -22 0 -30 -2 -17 -4z"/>
<path d="M2385 1815 c33 -7 69 -17 79 -21 13 -5 17 -4 13 3 -8 13 -86 33 -124
32 -17 0 -4 -6 32 -14z"/>
<path d="M2558 1814 c-27 -8 -48 -17 -48 -20 0 -3 10 -2 23 2 12 4 49 13 82
20 46 9 52 12 25 12 -19 0 -56 -6 -82 -14z"/>
<path d="M2753 1823 c15 -2 39 -2 55 0 15 2 2 4 -28 4 -30 0 -43 -2 -27 -4z"/>
<path d="M2073 1813 c9 -2 25 -2 35 0 9 3 1 5 -18 5 -19 0 -27 -2 -17 -5z"/>
<path d="M2858 1813 c12 -2 30 -2 40 0 9 3 -1 5 -23 4 -22 0 -30 -2 -17 -4z"/>
<path d="M2003 1803 c9 -2 23 -2 30 0 6 3 -1 5 -18 5 -16 0 -22 -2 -12 -5z"/>
<path d="M2933 1803 c9 -2 23 -2 30 0 6 3 -1 5 -18 5 -16 0 -22 -2 -12 -5z"/>
<path d="M1845 1790 l-30 -8 35 0 c19 0 58 3 85 8 l50 7 -55 0 c-30 1 -68 -3
-85 -7z"/>
<path d="M2138 1793 c6 -2 18 -2 25 0 6 3 1 5 -13 5 -14 0 -19 -2 -12 -5z"/>
<path d="M2353 1790 c27 -5 62 -13 79 -19 17 -6 33 -9 35 -7 8 8 -92 36 -126
35 -33 -1 -32 -2 12 -9z"/>
<path d="M2566 1784 c-26 -9 -46 -17 -43 -20 2 -2 17 1 33 7 16 6 67 15 114
19 l85 7 -70 1 c-38 0 -92 -6 -119 -14z"/>
<path d="M2783 1793 c9 -2 25 -2 35 0 9 3 1 5 -18 5 -19 0 -27 -2 -17 -5z"/>
<path d="M3020 1789 c25 -4 68 -7 95 -7 l50 1 -55 7 c-30 5 -73 8 -95 8 l-40
-1 45 -8z"/>
<path d="M2078 1783 c7 -3 16 -2 19 1 4 3 -2 6 -13 5 -11 0 -14 -3 -6 -6z"/>
<path d="M2185 1769 c-49 -5 -40 -6 50 -7 61 -1 135 -8 165 -16 62 -16 77 -14
28 4 -45 16 -171 26 -243 19z"/>
<path d="M2080 1760 l-35 -7 38 -2 c20 0 37 4 37 9 0 6 -1 9 -2 9 -2 -1 -19
-5 -38 -9z"/>
<path d="M2587 1756 c-26 -7 -51 -17 -55 -21 -4 -5 2 -5 13 -1 54 20 142 28
255 24 77 -3 106 -2 75 3 -78 12 -235 9 -288 -5z"/>
<path d="M3133 1753 c9 -2 23 -2 30 0 6 3 -1 5 -18 5 -16 0 -22 -2 -12 -5z"/>
<path d="M1935 1740 c-34 -6 -35 -7 -10 -8 17 0 50 3 75 7 40 8 41 8 10 8 -19
0 -53 -3 -75 -7z"/>
<path d="M2970 1739 c25 -4 59 -7 75 -7 22 0 18 3 -15 9 -25 4 -58 7 -75 7
-22 0 -18 -3 15 -9z"/>
<path d="M2100 1730 c-25 -4 16 -5 90 -3 111 4 148 1 208 -14 40 -11 68 -15
63 -10 -30 30 -238 46 -361 27z"/>
<path d="M2597 1724 c-32 -8 -66 -19 -75 -25 -15 -9 -15 -10 2 -4 51 16 119
27 201 34 l90 8 -80 1 c-44 0 -106 -6 -138 -14z"/>
<path d="M1818 1723 c12 -2 32 -2 45 0 12 2 2 4 -23 4 -25 0 -35 -2 -22 -4z"/>
<path d="M2821 1726 c2 -2 40 -6 84 -9 60 -4 69 -3 35 3 -46 9 -127 13 -119 6z"/>
<path d="M3103 1723 c15 -2 39 -2 55 0 15 2 2 4 -28 4 -30 0 -43 -2 -27 -4z"/>
<path d="M1935 1710 c-34 -6 -35 -7 -10 -8 17 0 50 3 75 7 40 8 41 8 10 8 -19
0 -53 -3 -75 -7z"/>
<path d="M3008 1703 c12 -2 30 -2 40 0 9 3 -1 5 -23 4 -22 0 -30 -2 -17 -4z"/>
<path d="M1813 1693 c15 -2 37 -2 50 0 12 2 0 4 -28 4 -27 0 -38 -2 -22 -4z"/>
<path d="M3108 1693 c18 -2 45 -2 60 0 15 2 0 4 -33 4 -33 0 -45 -2 -27 -4z"/>
<path d="M3161 1463 c-6 -21 -11 -45 -11 -53 0 -33 22 -90 34 -90 29 0 46 102
26 154 -14 38 -37 32 -49 -11z"/>
<path d="M3740 1474 c-22 -56 -6 -154 25 -154 24 0 38 92 22 153 -9 34 -34 35
-47 1z"/>
<path d="M2010 1440 c0 -8 -3 -25 -6 -37 -5 -17 -2 -23 10 -23 18 0 22 36 6
60 -9 13 -10 13 -10 0z"/>
<path d="M2200 1465 c0 -32 3 -36 23 -33 17 2 22 10 22 33 0 23 -5 31 -22 33
-20 3 -23 -1 -23 -33z"/>
<path d="M2387 1443 c-11 -10 -8 -63 3 -63 6 0 10 16 10 35 0 36 -2 40 -13 28z"/>
<path d="M2652 1463 c4 -51 33 -54 33 -3 0 26 -5 36 -18 38 -16 3 -18 -2 -15
-35z"/>
<path d="M2887 1494 c-4 -4 -7 -20 -7 -36 0 -25 4 -29 23 -26 17 2 22 10 22
33 0 29 -22 45 -38 29z"/>
<path d="M3520 1465 c0 -29 3 -36 18 -33 11 2 17 13 17 33 0 20 -6 31 -17 33
-15 3 -18 -4 -18 -33z"/>
</g>
</svg>
